<svg width="13" height="10" viewBox="0 0 13 10" fill="none" xmlns="http://www.w3.org/2000/svg">
<path d="M1 4.4C0.668629 4.4 0.4 4.66863 0.4 5C0.4 5.33137 0.668629 5.6 1 5.6L1 4.4ZM12.4243 5.42426C12.6586 5.18995 12.6586 4.81005 12.4243 4.57574L8.60589 0.757359C8.37157 0.523045 7.99167 0.523045 7.75736 0.757359C7.52304 0.991674 7.52304 1.37157 7.75736 1.60589L11.1515 5L7.75736 8.39411C7.52304 8.62843 7.52304 9.00833 7.75736 9.24264C7.99167 9.47696 8.37157 9.47696 8.60589 9.24264L12.4243 5.42426ZM1 5.6L12 5.6V4.4L1 4.4L1 5.6Z" fill="#003E52"/>
</svg>
