<svg width="99" height="86" viewBox="0 0 99 86" fill="none" xmlns="http://www.w3.org/2000/svg">
<path d="M0 50C0 22.3858 22.3858 0 50 0H94C96.7614 0 99 2.23858 99 5V36C99 63.6142 76.6142 86 49 86H5C2.23858 86 0 83.7614 0 81V50Z" fill="white"/>
<path d="M50.5054 38.5463C47.7023 47.0113 51.7354 53.3093 55.4082 54.9593C55.4699 54.987 55.5343 55.0002 55.602 54.9994C59.3501 54.9546 65.7032 52.4226 67.0989 44.7285C67.825 40.7262 66.0392 35.3227 65.6239 31.6368C65.3343 29.0661 65.6513 26.645 66.0389 25.0783C66.143 24.6575 65.7209 24.2598 65.3225 24.4308C61.377 26.1236 53.2311 30.3148 50.5054 38.5463Z" fill="#4CA585"/>
<path d="M33.686 51.6562C38.8954 56.8938 44.7458 54.7644 47.3463 53.1008C47.4474 53.0361 47.5188 52.9356 47.5489 52.8194C48.7112 48.3384 46.6253 44.5337 42.9185 41.8819C40.2288 39.9577 35.938 39.8366 33.2025 39.0351C31.4246 38.5141 29.8928 37.6632 28.8848 36.9547C28.5301 36.7054 28.0029 36.9479 28.0205 37.3811C28.1541 40.6672 29.0687 47.014 33.686 51.6562Z" fill="#4CA585"/>
<path d="M61.5687 33.3511C61.7911 33.0017 61.6881 32.5381 61.3386 32.3157C60.9891 32.0934 60.5256 32.1964 60.3032 32.5458L61.5687 33.3511ZM57.2385 62.0001L56.7081 62.5304C56.9565 62.7787 57.3438 62.8215 57.6403 62.6333C57.9368 62.4452 58.0631 62.0765 57.9441 61.7461L57.2385 62.0001ZM34.8723 43.9042C34.5051 43.7126 34.0521 43.855 33.8605 44.2222C33.6689 44.5894 33.8112 45.0425 34.1785 45.2341L34.8723 43.9042ZM60.3032 32.5458C56.5486 38.4459 51.6658 48.7346 56.5328 62.2541L57.9441 61.7461C53.3034 48.8551 57.9283 39.0717 61.5687 33.3511L60.3032 32.5458ZM57.7688 61.4698C52.4838 56.1847 47.1319 50.3005 34.8723 43.9042L34.1785 45.2341C46.2166 51.5148 51.4289 57.2512 56.7081 62.5304L57.7688 61.4698Z" fill="#003E52"/>
</svg>
