<svg width="191" height="29" viewBox="0 0 191 29" fill="none" xmlns="http://www.w3.org/2000/svg">
<path d="M56.8196 9.95826C58.0392 10.6334 58.9958 11.5854 59.6909 12.8142C60.3846 14.0446 60.7321 15.4625 60.7321 17.0697C60.7321 18.6768 60.3846 20.0994 59.6909 21.339C58.9958 22.5786 58.0392 23.5367 56.8196 24.2103C55.6 24.8855 54.2159 25.2223 52.6687 25.2223C51.5783 25.2223 50.5817 25.0331 49.679 24.6579C48.7762 24.2811 48.0165 23.7151 47.4028 22.9615V25.0147H43.861V5.3306V2.93604H47.5797V11.0594C48.2133 10.3658 48.9638 9.83983 49.8266 9.48149C50.6894 9.12469 51.6368 8.94629 52.6687 8.94629C54.2159 8.94629 55.6 9.28464 56.8196 9.95826ZM55.6308 20.67C56.5136 19.758 56.955 18.5584 56.955 17.0697C56.955 15.581 56.5136 14.3814 55.6308 13.4694C54.748 12.5574 53.6222 12.1006 52.2535 12.1006C51.3615 12.1006 50.5571 12.3051 49.8435 12.7112C49.1284 13.1187 48.564 13.6985 48.1472 14.4521C47.7304 15.2057 47.5228 16.0792 47.5228 17.0712C47.5228 18.0632 47.7304 18.9352 48.1472 19.6903C48.564 20.4439 49.1284 21.0253 49.8435 21.4313C50.5571 21.8388 51.3615 22.0403 52.2535 22.0403C53.6207 22.0387 54.7465 21.5835 55.6308 20.67Z" fill="#003E52"/>
<path d="M79.152 18.2602H66.6839C66.9023 19.4306 67.4729 20.358 68.3941 21.0423C69.3169 21.7267 70.4626 22.0697 71.8298 22.0697C73.5754 22.0697 75.0134 21.4945 76.1453 20.3441L78.1385 22.6356C77.4233 23.4892 76.5206 24.1336 75.4302 24.5704C74.3398 25.0071 73.1094 25.2255 71.7406 25.2255C69.9951 25.2255 68.4571 24.878 67.1284 24.1843C65.7996 23.4907 64.7722 22.5234 64.0479 21.2823C63.3235 20.0427 62.9621 18.6385 62.9621 17.0714C62.9621 14.9813 63.605 13.1712 64.8891 11.6409C65.1244 11.361 65.3859 11.1011 65.6689 10.8673C67.2114 9.58932 69.0462 8.948 71.1747 8.948C72.7218 8.948 74.106 9.28942 75.3256 9.9738C76.5452 10.6582 77.4971 11.6209 78.1815 12.8605C78.8659 14.1001 79.2089 15.5334 79.2089 17.1606C79.2104 17.4174 79.1904 17.785 79.152 18.2602ZM68.1557 12.9789C67.3329 13.6833 66.8315 14.6199 66.6531 15.7903H75.6685C75.5101 14.6399 75.0241 13.7064 74.2106 12.9928C73.397 12.2792 72.385 11.9224 71.1747 11.9224C69.9874 11.9224 68.98 12.2746 68.1557 12.9789Z" fill="#003E52"/>
<path d="M84.6609 25.0146V12.219H80.6684V9.24463H92.3721V12.2205H88.3796V25.0162H84.6609V25.0146Z" fill="#003E52"/>
<path d="M98.1286 25.0146V12.219H94.1361V9.24463H105.84V12.2205H101.847V25.0162H98.1286V25.0146Z" fill="#003E52"/>
<path d="M167.972 25.0146V12.219H163.98V9.24463H175.684V12.2205H171.691V25.0162H167.972V25.0146Z" fill="#4CA585"/>
<path d="M123.172 18.2602H110.704C110.923 19.4306 111.493 20.358 112.416 21.0423C113.339 21.7267 114.485 22.0697 115.852 22.0697C117.597 22.0697 119.035 21.4945 120.166 20.3441L122.159 22.6356C121.444 23.4892 120.542 24.1336 119.451 24.5704C118.359 25.0071 117.13 25.2255 115.761 25.2255C114.015 25.2255 112.478 24.878 111.149 24.1843C109.82 23.4907 108.793 22.5234 108.07 21.2823C107.345 20.0427 106.984 18.6385 106.984 17.0714C106.984 14.9829 107.627 13.1742 108.909 11.644C109.145 11.3641 109.406 11.1042 109.688 10.8704C111.23 9.58932 113.067 8.948 115.197 8.948C116.744 8.948 118.128 9.28942 119.347 9.9738C120.567 10.6582 121.519 11.6209 122.203 12.8605C122.888 14.1001 123.229 15.5334 123.229 17.1606C123.231 17.4174 123.212 17.785 123.172 18.2602ZM112.178 12.9789C111.355 13.6833 110.853 14.6199 110.675 15.7903H119.69C119.532 14.6399 119.046 13.7064 118.232 12.9928C117.419 12.2792 116.407 11.9224 115.198 11.9224C114.006 11.9224 113 12.2746 112.178 12.9789Z" fill="#003E52"/>
<path d="M135.997 8.94604V12.4879C135.68 12.4279 135.391 12.3987 135.134 12.3987C133.686 12.3987 132.555 12.8201 131.742 13.6629C130.928 14.5057 130.522 15.7207 130.522 17.3078V25.0144H126.802V9.12445H130.342V11.4452C131.414 9.77961 133.298 8.94604 135.997 8.94604Z" fill="#003E52"/>
<path d="M155.172 9.12598L148.358 25.0159H144.519L137.706 9.12598H141.575L146.514 20.9097L151.603 9.12598H155.172Z" fill="#4CA585"/>
<path d="M157.671 5.86726C157.215 5.44125 156.987 4.91066 156.987 4.27549C156.987 3.64186 157.305 3.10974 157.764 2.68373C158.219 2.25772 158.785 2.04395 159.46 2.04395C160.134 2.04395 160.7 2.24849 161.156 2.65451C161.612 3.06206 161.748 3.57265 161.748 4.18629C161.748 4.84145 161.525 5.3905 161.079 5.83804C160.633 6.28404 160.063 6.50704 159.369 6.50704C158.693 6.50704 158.128 6.2948 157.671 5.86726ZM157.493 9.12615H161.212V25.0161H157.493V9.12615Z" fill="#4CA585"/>
<path d="M180.022 24.718C178.792 24.3812 177.811 23.9552 177.076 23.4384L178.504 20.6117C179.218 21.0885 180.076 21.4699 181.077 21.7575C182.078 22.0451 183.066 22.1896 184.038 22.1896C186.259 22.1896 187.37 21.6037 187.37 20.4333C187.37 19.8781 187.087 19.4906 186.523 19.2722C185.957 19.0538 185.05 18.8462 183.801 18.6478C182.492 18.4494 181.425 18.2218 180.602 17.9634C179.779 17.7065 179.064 17.2544 178.46 16.61C177.854 15.9656 177.552 15.0674 177.552 13.9171C177.552 12.4099 178.183 11.2042 179.442 10.3014C180.702 9.39861 182.403 8.948 184.545 8.948C185.636 8.948 186.728 9.07257 187.818 9.32018C188.908 9.56932 189.802 9.89998 190.496 10.3168L189.067 13.1435C187.718 12.3499 186.2 11.9531 184.515 11.9531C183.424 11.9531 182.595 12.1161 182.029 12.4437C181.465 12.7713 181.182 13.2019 181.182 13.7387C181.182 14.3339 181.483 14.7552 182.089 15.0029C182.694 15.252 183.632 15.4842 184.901 15.7026C186.169 15.901 187.21 16.1302 188.024 16.387C188.838 16.6454 189.537 17.0821 190.122 17.6958C190.706 18.311 191 19.183 191 20.3149C191 21.8021 190.356 22.9924 189.067 23.886C187.776 24.778 186.022 25.2255 183.799 25.2255C182.512 25.224 181.253 25.0548 180.022 24.718Z" fill="#4CA585"/>
<path d="M29.1205 0C25.8056 0 22.6264 1.35455 20.2824 3.76567C17.9383 6.17679 16.6215 9.44696 16.6215 12.8568V27.1044C16.6215 27.3444 16.7141 27.5744 16.879 27.7441C17.044 27.9137 17.2677 28.009 17.5009 28.009C20.8159 28.009 23.9951 26.6545 26.3391 24.2434C28.6831 21.8323 30 18.5621 30 15.1522V0.904612C30 0.664694 29.9073 0.434602 29.7424 0.264955C29.5775 0.0953071 29.3538 0 29.1205 0V0Z" fill="#4CA585"/>
<path d="M7.82484 0H0.879443C0.6462 0 0.42251 0.0953071 0.257583 0.264955C0.0926554 0.434602 0 0.664694 0 0.904612L0 12.2326C0 12.4725 0.0926554 12.7026 0.257583 12.8723C0.42251 13.0419 0.6462 13.1372 0.879443 13.1372H7.82484C9.51585 13.1372 11.1376 12.4462 12.3333 11.2163C13.5291 9.98636 14.2008 8.3182 14.2008 6.57879C14.2034 5.71581 14.0404 4.86079 13.7212 4.06273C13.4019 3.26468 12.9327 2.53928 12.3403 1.92811C11.748 1.31695 11.0443 0.832036 10.2694 0.501171C9.49454 0.170307 8.66382 -4.15579e-06 7.82484 0V0Z" fill="#4CA585"/>
<path d="M7.69513 14.8628H0.879443C0.6462 14.8628 0.42251 14.9581 0.257583 15.1277C0.0926553 15.2974 0 15.5275 0 15.7674L0 27.0954C0 27.3353 0.0926553 27.5654 0.257583 27.7351C0.42251 27.9047 0.6462 28 0.879443 28H7.82484C8.6779 28.0013 9.52253 27.8264 10.3087 27.4858C11.0949 27.1453 11.8066 26.6459 12.4018 26.0172C12.9969 25.3886 13.4634 24.6435 13.7735 23.8261C14.0837 23.0087 14.2312 22.1355 14.2074 21.2584C14.1129 17.6694 11.1711 14.8628 7.69513 14.8628Z" fill="#4CA585"/>
</svg>
