<?xml version="1.0" encoding="utf-8"?>
<!-- Generator: Adobe Illustrator 21.1.0, SVG Export Plug-In . SVG Version: 6.00 Build 0)  -->
<svg version="1.1" id="Layer_1" xmlns="http://www.w3.org/2000/svg" xmlns:xlink="http://www.w3.org/1999/xlink" x="0px" y="0px"
	 viewBox="0 0 109.2 69.5" style="enable-background:new 0 0 109.2 69.5;" xml:space="preserve">
<style type="text/css">
	.st0{fill:none;stroke:#4CA585;stroke-width:2;stroke-linecap:round;}
	.st1{fill:none;stroke:#4CA585;stroke-width:2;stroke-linecap:round;stroke-linejoin:round;}
	.st2{fill:#4CA585;}
</style>
<path class="st0" d="M62,50c15.8-4.9,33-18.8,39.6-47"/>
<path class="st1" d="M95.7,5.7l6.4-4.1l3.8,6.2"/>
<path class="st2" d="M2.8,69.3h1.9v-7.5h2.8v-1.9H0v1.9h2.8V69.3z M9.6,69.3l0.7-1.9h4.2l0.7,1.9h2l-3.6-9.4h-2.3l-3.6,9.4H9.6z
	 M12.4,61.8l1.4,3.8H11L12.4,61.8z M20.9,69.3v-4.5l3.4,4.5h2.5L23,64.4l3.6-4.5h-2.4L20.9,64v-4.1H19v9.4H20.9z M28.5,59.9v9.4h6.2
	v-1.8h-4.3v-2h3.8v-1.8h-3.8v-1.9h4.2v-1.8H28.5z M40.4,64.6c0,1.4,0.5,2.5,1.4,3.4c0.9,0.9,2.1,1.4,3.4,1.4s2.5-0.5,3.5-1.4
	c1-0.9,1.4-2.1,1.4-3.5c0-1.3-0.5-2.5-1.4-3.4c-0.9-0.9-2.1-1.4-3.4-1.4s-2.5,0.5-3.5,1.4C40.9,62.1,40.4,63.3,40.4,64.6z
	 M43.2,62.5c0.6-0.6,1.2-0.9,2.1-0.9c0.8,0,1.5,0.3,2.1,0.9c0.6,0.6,0.8,1.3,0.8,2.1c0,0.8-0.3,1.5-0.8,2.1
	c-0.6,0.6-1.2,0.9-2.1,0.9c-0.8,0-1.5-0.3-2.1-0.9c-0.6-0.6-0.8-1.3-0.8-2.1C42.4,63.8,42.6,63.1,43.2,62.5z M58,59.9v5.7
	c0,1.2-0.7,2-1.9,2c-1.1,0-1.8-0.7-1.8-2l0-5.6h-2v5.7c0,2.4,1.2,3.9,3.8,3.9c2.5,0,3.8-1.5,3.8-3.9v-5.6H58z M70,69.3l-2.1-3.7
	c1.3-0.5,1.9-1.4,1.9-2.7c0-0.9-0.3-1.7-0.9-2.2c-0.6-0.5-1.4-0.8-2.4-0.8h-3.7v9.4h1.9v-3.4h1.2l1.9,3.4H70z M64.7,61.8h1.6
	c0.9,0,1.5,0.3,1.5,1.2c0,0.8-0.7,1.2-1.5,1.2h-1.6V61.8z M85.2,68.2l-0.9-0.8c0.6-0.8,0.9-1.8,0.9-2.8c0-1.3-0.5-2.5-1.4-3.4
	c-0.9-0.9-2.1-1.4-3.4-1.4c-1.4,0-2.5,0.5-3.5,1.4c-0.9,0.9-1.4,2.1-1.4,3.4c0,1.4,0.5,2.5,1.4,3.4c0.9,0.9,2.1,1.4,3.5,1.4
	c1,0,1.9-0.3,2.7-0.8l1,0.9L85.2,68.2z M80.3,67.6c-0.8,0-1.5-0.3-2.1-0.9c-0.6-0.6-0.9-1.3-0.9-2.1c0-0.8,0.3-1.5,0.9-2.1
	c0.6-0.6,1.2-0.9,2.1-0.9s1.5,0.3,2,0.9c0.6,0.6,0.9,1.3,0.9,2.1c0,0.5-0.1,1-0.4,1.5l-1.6-1.5L80,66l1.5,1.3
	C81.1,67.5,80.7,67.6,80.3,67.6z M93,59.9v5.7c0,1.2-0.7,2-1.9,2c-1.1,0-1.8-0.7-1.8-2l0-5.6h-2v5.7c0,2.4,1.2,3.9,3.8,3.9
	c2.5,0,3.8-1.5,3.8-3.9v-5.6H93z M99.7,59.9h-1.9v9.4h1.9V59.9z M102,69.3h7.2l0-1.8h-4.8l4.7-5.9v-1.7h-6.9v1.8h4.5l-4.7,5.9V69.3z
	"/>
</svg>
