<svg width="99" height="86" viewBox="0 0 99 86" fill="none" xmlns="http://www.w3.org/2000/svg">
<path d="M0 50C0 22.3858 22.3858 0 50 0H94C96.7614 0 99 2.23858 99 5V36C99 63.6142 76.6142 86 49 86H5C2.23858 86 0 83.7614 0 81V50Z" fill="white"/>
<path d="M29.2414 57.0356C24.7531 51.426 26.3522 44.7102 29.1247 42.8901C29.2004 42.8404 29.2907 42.817 29.3813 42.8175C35.5374 42.8466 38.1526 44.8032 40.2297 47.7801C41.7946 50.5449 41.8468 54.9939 42.4805 57.8208C42.8946 59.6679 43.6682 61.2822 44.3282 62.3484C44.5563 62.717 44.2846 63.2331 43.8524 63.1994C40.3382 62.9253 33.0987 61.8566 29.2414 57.0356Z" fill="#4CA585"/>
<path d="M29.2415 37.1296C28.4832 41.49 29.2424 50.7795 39.4783 58.7419" stroke="#003E52" stroke-width="1.5" stroke-linecap="round"/>
<path d="M68.1669 53.7838C65.3187 60.3793 58.6376 62.1178 55.7296 60.5233C55.6501 60.4797 55.5871 60.4109 55.545 60.3307C52.6826 54.8805 53.1836 51.653 54.838 48.422C56.5456 45.7429 60.45 43.6096 62.6492 41.7237C64.0862 40.4915 65.1489 39.0509 65.7809 37.9679C65.9993 37.5935 66.5826 37.5914 66.7555 37.9888C68.1622 41.2209 70.6148 48.1156 68.1669 53.7838Z" fill="#4CA585"/>
<path d="M50.5881 63.1229C54.7946 61.7469 62.6421 56.7183 64.8717 43.9432" stroke="#003E52" stroke-width="1.5" stroke-linecap="round"/>
<path d="M45.5529 22.4466C52.6552 21.3645 57.6717 26.1072 57.8616 29.4182C57.8668 29.5087 57.842 29.5986 57.7963 29.6769C54.693 34.9936 51.6909 36.2802 48.0743 36.5906C44.8974 36.5634 41.0184 34.3841 38.2534 33.5194C36.4467 32.9545 34.6619 32.8173 33.4085 32.8557C32.9752 32.869 32.6642 32.3756 32.9095 32.0182C34.9039 29.1118 39.4492 23.3767 45.5529 22.4466Z" fill="#4CA585"/>
<path d="M62.7943 32.3998C59.3973 29.5629 50.9727 25.5757 38.9592 30.459" stroke="#003E52" stroke-width="1.5" stroke-linecap="round"/>
</svg>
