<svg width="99" height="86" viewBox="0 0 99 86" fill="none" xmlns="http://www.w3.org/2000/svg">
<path d="M0 50C0 22.3858 22.3858 0 50 0H94C96.7614 0 99 2.23858 99 5V36C99 63.6142 76.6142 86 49 86H5C2.23858 86 0 83.7614 0 81V50Z" fill="white"/>
<path d="M37.8451 57.7062C38.0241 58.0133 38.2798 58.2672 38.5864 58.4421C38.893 58.617 39.2396 58.7068 39.5913 58.7024L58.435 58.6147C58.7859 58.6129 59.1302 58.5187 59.4344 58.3412C59.7386 58.1638 59.9921 57.9093 60.1701 57.6025C60.3481 57.2958 60.4446 56.9474 60.4499 56.5915C60.4553 56.2356 60.3695 55.8843 60.2008 55.5722L56.0722 48.1428C55.6906 48.7461 55.1663 49.2429 54.547 49.5881C53.9277 49.9332 53.2332 50.1156 52.5266 50.1187C51.8201 50.1218 51.124 49.9455 50.5018 49.6058C49.8796 49.2661 49.3511 48.7739 48.9643 48.174C48.5833 48.7775 48.0595 49.2745 47.4405 49.6199C46.8216 49.9653 46.1273 50.148 45.4209 50.1514C44.7146 50.1548 44.0186 49.9787 43.3965 49.6393C42.7744 49.2998 42.2459 48.8077 41.8593 48.2079L37.7977 55.6769C37.6293 55.9895 37.545 56.3417 37.5533 56.698C37.5616 57.0542 37.6622 57.4019 37.8451 57.7062Z" fill="#4CA585"/>
<path d="M62.1921 54.4627L52.6712 36.8672L52.6322 27.785H52.6852C52.8654 27.7838 53.0437 27.7468 53.2098 27.6758C53.3759 27.6047 53.5266 27.5012 53.6532 27.3711C53.7799 27.241 53.8801 27.0869 53.948 26.9175C54.016 26.7482 54.0504 26.5669 54.0493 26.384V26.384C54.0486 26.2013 54.0123 26.0205 53.9426 25.852C53.8729 25.6835 53.7712 25.5306 53.6432 25.402C53.5152 25.2735 53.3634 25.1718 53.1967 25.1028C53.0299 25.0338 52.8513 24.9989 52.6712 25L45.0501 25.034C44.8699 25.0347 44.6915 25.0715 44.5253 25.1422C44.359 25.2128 44.2082 25.316 44.0812 25.4458C43.9543 25.5757 43.8538 25.7296 43.7855 25.8988C43.7172 26.068 43.6825 26.2493 43.6832 26.4321C43.6839 26.615 43.7201 26.7959 43.7898 26.9646C43.8594 27.1332 43.9612 27.2863 44.0891 27.4151C44.2171 27.5439 44.3688 27.6458 44.5356 27.7151C44.7024 27.7844 44.881 27.8197 45.0612 27.8189H45.1142L45.1561 36.904L35.797 54.5844C35.4445 55.25 35.2685 55.9971 35.2864 56.7525C35.3043 57.5079 35.5155 58.2457 35.8992 58.8933C36.283 59.5409 36.8261 60.0762 37.4752 60.4466C38.1243 60.817 38.8573 61.0098 39.602 61.0062L58.4457 60.9184C59.1903 60.915 59.9212 60.7153 60.5667 60.3389C61.2123 59.9625 61.7503 59.4223 62.1281 58.7714C62.5059 58.1204 62.7104 57.3809 62.7216 56.6256C62.7329 55.8703 62.5504 55.1249 62.1921 54.4627Z" stroke="#003E52" stroke-width="1.5" stroke-linejoin="round"/>
<path d="M45.1152 27.8218L47.7988 27.8076" stroke="#003E52" stroke-width="1.5" stroke-linecap="round" stroke-linejoin="round"/>
</svg>
