<svg width="99" height="86" viewBox="0 0 99 86" fill="none" xmlns="http://www.w3.org/2000/svg">
<path d="M0 50C0 22.3858 22.3858 0 50 0H94C96.7614 0 99 2.23858 99 5V36C99 63.6142 76.6142 86 49 86H5C2.23858 86 0 83.7614 0 81V50Z" fill="white"/>
<mask id="mask0_3001_5914" style="mask-type:alpha" maskUnits="userSpaceOnUse" x="33" y="27" width="33" height="33">
<path d="M49.1355 59.2709C58.0468 59.2709 65.2709 52.0468 65.2709 43.1355C65.2709 34.2241 58.0468 27 49.1355 27C40.2241 27 33 34.2241 33 43.1355C33 52.0468 40.2241 59.2709 49.1355 59.2709Z" fill="#4CA585"/>
</mask>
<g mask="url(#mask0_3001_5914)">
<rect x="33.2715" y="31.2715" width="31" height="4" fill="#E76367"/>
<rect x="33.2715" y="39.2715" width="32" height="4" fill="#E76367"/>
<rect x="33.2715" y="47.2715" width="31" height="4" fill="#E76367"/>
<rect x="33.2715" y="55.2715" width="31" height="4" fill="#E76367"/>
<rect x="33.2715" y="27.2715" width="16" height="16" fill="#003E52"/>
</g>
<path d="M49.1355 59.2709C58.0468 59.2709 65.2709 52.0468 65.2709 43.1355C65.2709 34.2241 58.0468 27 49.1355 27C40.2241 27 33 34.2241 33 43.1355C33 52.0468 40.2241 59.2709 49.1355 59.2709Z" stroke="#003E52" stroke-width="1.5" stroke-miterlimit="10"/>
<path d="M42.0813 32.8569C42.1411 32.6726 42.4018 32.6726 42.4617 32.8569L43.1246 34.8972C43.1514 34.9796 43.2282 35.0354 43.3148 35.0354H45.4602C45.6539 35.0354 45.7345 35.2833 45.5777 35.3972L43.8421 36.6582C43.772 36.7091 43.7427 36.7994 43.7695 36.8818L44.4324 38.9221C44.4923 39.1064 44.2814 39.2596 44.1246 39.1457L42.389 37.8848C42.3189 37.8338 42.224 37.8338 42.1539 37.8848L40.4183 39.1457C40.2616 39.2596 40.0507 39.1064 40.1106 38.9221L40.7735 36.8818C40.8003 36.7994 40.7709 36.7091 40.7008 36.6582L38.9652 35.3972C38.8085 35.2833 38.8891 35.0354 39.0828 35.0354H41.2281C41.3148 35.0354 41.3916 34.9796 41.4183 34.8972L42.0813 32.8569Z" fill="white"/>
</svg>
