<svg width="42" height="37" viewBox="0 0 42 37" fill="none" xmlns="http://www.w3.org/2000/svg">
<path d="M0 20C0 8.95431 8.95431 0 20 0H39C40.6569 0 42 1.34315 42 3V17C42 28.0457 33.0457 37 22 37H3C1.34315 37 0 35.6569 0 34V20Z" fill="#4CA585"/>
<path d="M14.5741 16.1667H12.75C12.2437 16.1667 11.8333 16.5771 11.8333 17.0833V24.4167C11.8333 24.9229 12.2437 25.3333 12.75 25.3333H14.5741C15.0804 25.3333 15.4908 24.9229 15.4908 24.4167V17.0833C15.4908 16.5771 15.0804 16.1667 14.5741 16.1667Z" fill="white"/>
<path d="M17.3334 23.335C17.3305 23.6596 17.4138 23.9792 17.5748 24.261C17.7359 24.5428 17.9689 24.7769 18.25 24.9392L19.79 25.7917C20.2422 26.0884 20.7708 26.2476 21.3117 26.25H27.9667C28.1812 26.2543 28.3903 26.1833 28.5578 26.0493C28.7253 25.9153 28.8405 25.7268 28.8834 25.5167L30.1667 18.3575C30.2202 18.0887 30.2127 17.8113 30.1449 17.5458C30.077 17.2802 29.9505 17.0333 29.7746 16.8231C29.5987 16.6129 29.378 16.4448 29.1285 16.3312C28.8791 16.2176 28.6074 16.1614 28.3334 16.1667H22.8334V11.5833C22.8334 11.3402 22.7368 11.1071 22.5649 10.9352C22.393 10.7632 22.1598 10.6667 21.9167 10.6667H21.275C20.9178 10.668 20.5687 10.7737 20.2706 10.9707C19.9726 11.1678 19.7387 11.4476 19.5975 11.7758L17.5442 16.5608C17.4017 16.9035 17.3299 17.2714 17.3334 17.6425V23.335Z" fill="white"/>
</svg>
