<svg width="99" height="86" viewBox="0 0 99 86" fill="none" xmlns="http://www.w3.org/2000/svg">
<path d="M0 50C0 22.3858 22.3858 0 50 0H94C96.7614 0 99 2.23858 99 5V36C99 63.6142 76.6142 86 49 86H5C2.23858 86 0 83.7614 0 81V50Z" fill="white"/>
<g clip-path="url(#clip0_3582_54)">
<mask id="mask0_3582_54" style="mask-type:alpha" maskUnits="userSpaceOnUse" x="32" y="26" width="33" height="33">
<path d="M48.864 58.9999C57.7753 58.9999 64.9994 51.7758 64.9994 42.8645C64.9994 33.9531 57.7753 26.729 48.864 26.729C39.9526 26.729 32.7285 33.9531 32.7285 42.8645C32.7285 51.7758 39.9526 58.9999 48.864 58.9999Z" fill="#4CA585"/>
</mask>
<g mask="url(#mask0_3582_54)">
<mask id="path-3-inside-1_3582_54" fill="white">
<path fill-rule="evenodd" clip-rule="evenodd" d="M53.3219 18.52H44.8116V38.7317H24.6016L24.6016 47.2419H44.8116V67.454H53.3219V47.2419H72.4718V38.7317H53.3219V18.52Z"/>
</mask>
<path fill-rule="evenodd" clip-rule="evenodd" d="M53.3219 18.52H44.8116V38.7317H24.6016L24.6016 47.2419H44.8116V67.454H53.3219V47.2419H72.4718V38.7317H53.3219V18.52Z" fill="#4CA585"/>
<path d="M44.8116 18.52V17.02H43.3116V18.52H44.8116ZM53.3219 18.52H54.8219V17.02H53.3219V18.52ZM44.8116 38.7317V40.2317H46.3116V38.7317H44.8116ZM24.6016 38.7317V37.2317H23.1016L23.1016 38.7317L24.6016 38.7317ZM24.6016 47.2419L23.1016 47.2419L23.1016 48.7419H24.6016V47.2419ZM44.8116 47.2419H46.3116V45.7419H44.8116V47.2419ZM44.8116 67.454H43.3116V68.954H44.8116V67.454ZM53.3219 67.454V68.954H54.8219V67.454H53.3219ZM53.3219 47.2419V45.7419H51.8219V47.2419H53.3219ZM72.4718 47.2419V48.7419H73.9718V47.2419H72.4718ZM72.4718 38.7317H73.9718V37.2317H72.4718V38.7317ZM53.3219 38.7317H51.8219V40.2317H53.3219V38.7317ZM44.8116 20.02H53.3219V17.02H44.8116V20.02ZM46.3116 38.7317V18.52H43.3116V38.7317H46.3116ZM24.6016 40.2317H44.8116V37.2317H24.6016V40.2317ZM26.1016 47.2419L26.1016 38.7317L23.1016 38.7317L23.1016 47.2419L26.1016 47.2419ZM44.8116 45.7419H24.6016V48.7419H44.8116V45.7419ZM46.3116 67.454V47.2419H43.3116V67.454H46.3116ZM53.3219 65.954H44.8116V68.954H53.3219V65.954ZM51.8219 47.2419V67.454H54.8219V47.2419H51.8219ZM72.4718 45.7419H53.3219V48.7419H72.4718V45.7419ZM70.9718 38.7317V47.2419H73.9718V38.7317H70.9718ZM53.3219 40.2317H72.4718V37.2317H53.3219V40.2317ZM51.8219 18.52V38.7317H54.8219V18.52H51.8219Z" fill="#003E52" mask="url(#path-3-inside-1_3582_54)"/>
</g>
<path d="M45.5013 39.5006L37.4883 31.4602" stroke="#003E52" stroke-width="1.5" stroke-miterlimit="10"/>
<path d="M52.5 46.5L60.2708 54.2684" stroke="#003E52" stroke-width="1.5" stroke-miterlimit="10"/>
<path d="M45.5 46.5L37.4609 54.2684" stroke="#003E52" stroke-width="1.5" stroke-miterlimit="10"/>
<path d="M52.5 39.5L60.2708 31.4602" stroke="#003E52" stroke-width="1.5" stroke-miterlimit="10"/>
<path d="M48.864 58.9999C57.7753 58.9999 64.9994 51.7758 64.9994 42.8645C64.9994 33.9531 57.7753 26.729 48.864 26.729C39.9526 26.729 32.7285 33.9531 32.7285 42.8645C32.7285 51.7758 39.9526 58.9999 48.864 58.9999Z" stroke="#003E52" stroke-width="1.5" stroke-miterlimit="10"/>
</g>
<defs>
<clipPath id="clip0_3582_54">
<rect width="34" height="34" fill="white" transform="translate(32 26)"/>
</clipPath>
</defs>
</svg>
