<svg width="99" height="86" viewBox="0 0 99 86" fill="none" xmlns="http://www.w3.org/2000/svg">
<path d="M0 50C0 22.3858 22.3858 0 50 0H94C96.7614 0 99 2.23858 99 5V36C99 63.6142 76.6142 86 49 86H5C2.23858 86 0 83.7614 0 81V50Z" fill="white"/>
<path fill-rule="evenodd" clip-rule="evenodd" d="M59.277 36.1668L48.9632 30.2122L44.9107 32.5519L54.8653 38.379C54.8846 38.3903 54.9032 38.4023 54.921 38.4151L59.277 36.1668ZM53.4295 39.1849L43.4947 33.3694L38.6496 36.1667L48.9634 41.49L53.4295 39.1849ZM37.8887 37.3729V49.3938L48.253 55.3777V42.7223L37.8887 37.3729ZM49.6738 55.3774L60.0377 49.3938V37.3731L49.6738 42.7223V55.3774Z" fill="#4CA585"/>
<path d="M29.834 44.4209C30.5611 54.3511 38.848 62.1817 48.9638 62.1817C58.7149 62.1817 66.7666 54.9056 67.9858 45.4865M68.0936 41.5792C67.3666 31.6489 59.0796 23.8184 48.9638 23.8184C39.2127 23.8184 31.161 31.0944 29.9418 40.5135" stroke="#003E52" stroke-width="1.5" stroke-linecap="round"/>
<path d="M26.9727 37.76L29.7038 41.4355L33.3793 38.7044" stroke="#003E52" stroke-width="1.5" stroke-linecap="round" stroke-linejoin="round"/>
<path d="M71 48.0964L68.2689 44.4209L64.5934 47.1521" stroke="#003E52" stroke-width="1.5" stroke-linecap="round" stroke-linejoin="round"/>
</svg>
