<svg width="86" height="14" viewBox="0 0 86 14" fill="none" xmlns="http://www.w3.org/2000/svg">
<path d="M6.8195 0.378273C6.89194 0.226449 7.10806 0.226449 7.1805 0.378273L8.96936 4.12711C8.99851 4.18821 9.0566 4.23041 9.12372 4.23926L13.2419 4.7821C13.4086 4.80409 13.4754 5.00962 13.3534 5.12544L10.3408 7.9852C10.2917 8.03181 10.2696 8.10009 10.2819 8.16666L11.0382 12.251C11.0688 12.4164 10.894 12.5434 10.7461 12.4632L7.0954 10.4818C7.0359 10.4495 6.9641 10.4495 6.9046 10.4818L3.25388 12.4632C3.10603 12.5434 2.93119 12.4164 2.96182 12.251L3.71811 8.16666C3.73044 8.10009 3.70825 8.03181 3.65915 7.9852L0.646585 5.12544C0.524579 5.00962 0.591361 4.80409 0.758142 4.7821L4.87628 4.23926C4.9434 4.23041 5.00149 4.18821 5.03064 4.1271L6.8195 0.378273Z" fill="#FFBE9F"/>
<path d="M24.8195 0.378273C24.8919 0.226449 25.1081 0.226449 25.1805 0.378273L26.9694 4.12711C26.9985 4.18821 27.0566 4.23041 27.1237 4.23926L31.2419 4.7821C31.4086 4.80409 31.4754 5.00962 31.3534 5.12544L28.3408 7.9852C28.2917 8.03181 28.2696 8.10009 28.2819 8.16666L29.0382 12.251C29.0688 12.4164 28.894 12.5434 28.7461 12.4632L25.0954 10.4818C25.0359 10.4495 24.9641 10.4495 24.9046 10.4818L21.2539 12.4632C21.106 12.5434 20.9312 12.4164 20.9618 12.251L21.7181 8.16666C21.7304 8.10009 21.7083 8.03181 21.6591 7.9852L18.6466 5.12544C18.5246 5.00962 18.5914 4.80409 18.7581 4.7821L22.8763 4.23926C22.9434 4.23041 23.0015 4.18821 23.0306 4.1271L24.8195 0.378273Z" fill="#FFBE9F"/>
<path d="M42.8195 0.378273C42.8919 0.226449 43.1081 0.226449 43.1805 0.378273L44.9694 4.12711C44.9985 4.18821 45.0566 4.23041 45.1237 4.23926L49.2419 4.7821C49.4086 4.80409 49.4754 5.00962 49.3534 5.12544L46.3408 7.9852C46.2917 8.03181 46.2696 8.10009 46.2819 8.16666L47.0382 12.251C47.0688 12.4164 46.894 12.5434 46.7461 12.4632L43.0954 10.4818C43.0359 10.4495 42.9641 10.4495 42.9046 10.4818L39.2539 12.4632C39.106 12.5434 38.9312 12.4164 38.9618 12.251L39.7181 8.16666C39.7304 8.10009 39.7083 8.03181 39.6591 7.9852L36.6466 5.12544C36.5246 5.00962 36.5914 4.80409 36.7581 4.7821L40.8763 4.23926C40.9434 4.23041 41.0015 4.18821 41.0306 4.1271L42.8195 0.378273Z" fill="#FFBE9F"/>
<path d="M60.8195 0.378273C60.8919 0.226449 61.1081 0.226449 61.1805 0.378273L62.9694 4.12711C62.9985 4.18821 63.0566 4.23041 63.1237 4.23926L67.2419 4.7821C67.4086 4.80409 67.4754 5.00962 67.3534 5.12544L64.3408 7.9852C64.2917 8.03181 64.2696 8.10009 64.2819 8.16666L65.0382 12.251C65.0688 12.4164 64.894 12.5434 64.7461 12.4632L61.0954 10.4818C61.0359 10.4495 60.9641 10.4495 60.9046 10.4818L57.2539 12.4632C57.106 12.5434 56.9312 12.4164 56.9618 12.251L57.7181 8.16666C57.7304 8.10009 57.7083 8.03181 57.6591 7.9852L54.6466 5.12544C54.5246 5.00962 54.5914 4.80409 54.7581 4.7821L58.8763 4.23926C58.9434 4.23041 59.0015 4.18821 59.0306 4.1271L60.8195 0.378273Z" fill="#FFBE9F"/>
<path d="M78.8195 0.378273C78.8919 0.226449 79.1081 0.226449 79.1805 0.378273L80.9694 4.12711C80.9985 4.18821 81.0566 4.23041 81.1237 4.23926L85.2419 4.7821C85.4086 4.80409 85.4754 5.00962 85.3534 5.12544L82.3408 7.9852C82.2917 8.03181 82.2696 8.10009 82.2819 8.16666L83.0382 12.251C83.0688 12.4164 82.894 12.5434 82.7461 12.4632L79.0954 10.4818C79.0359 10.4495 78.9641 10.4495 78.9046 10.4818L75.2539 12.4632C75.106 12.5434 74.9312 12.4164 74.9618 12.251L75.7181 8.16666C75.7304 8.10009 75.7083 8.03181 75.6591 7.9852L72.6466 5.12544C72.5246 5.00962 72.5914 4.80409 72.7581 4.7821L76.8763 4.23926C76.9434 4.23041 77.0015 4.18821 77.0306 4.1271L78.8195 0.378273Z" fill="#FFBE9F"/>
</svg>
